<svg width="20" height="20" viewBox="0 0 20 20" fill="none" xmlns="http://www.w3.org/2000/svg">
<path d="M1.66659 16V14.3333H18.3333V16H1.66659ZM2.62492 10.9583L1.54159 10.3333L2.24992 9.08333H0.833252V7.83333H2.24992L1.54159 6.625L2.62492 6L3.33325 7.20833L4.04159 6L5.12492 6.625L4.41658 7.83333H5.83325V9.08333H4.41658L5.12492 10.3333L4.04159 10.9583L3.33325 9.70833L2.62492 10.9583ZM9.29158 10.9583L8.20825 10.3333L8.91658 9.08333H7.49992V7.83333H8.91658L8.20825 6.625L9.29158 6L9.99992 7.20833L10.7083 6L11.7916 6.625L11.0833 7.83333H12.4999V9.08333H11.0833L11.7916 10.3333L10.7083 10.9583L9.99992 9.70833L9.29158 10.9583ZM15.9583 10.9583L14.8749 10.3333L15.5833 9.08333H14.1666V7.83333H15.5833L14.8749 6.625L15.9583 6L16.6666 7.20833L17.3749 6L18.4583 6.625L17.7499 7.83333H19.1666V9.08333H17.7499L18.4583 10.3333L17.3749 10.9583L16.6666 9.70833L15.9583 10.9583Z" fill="#16B84F"/>
</svg>
