<svg width="33" height="33" viewBox="0 0 33 33" fill="none" xmlns="http://www.w3.org/2000/svg">
<path d="M14.7984 9.60781C14.3286 9.13802 14.0938 8.57083 14.0938 7.90625C14.0938 7.24167 14.3286 6.67448 14.7984 6.20469C15.2682 5.7349 15.8354 5.5 16.5 5.5C17.1646 5.5 17.7318 5.7349 18.2016 6.20469C18.6714 6.67448 18.9062 7.24167 18.9062 7.90625C18.9062 8.57083 18.6714 9.13802 18.2016 9.60781C17.7318 10.0776 17.1646 10.3125 16.5 10.3125C15.8354 10.3125 15.2682 10.0776 14.7984 9.60781ZM13.75 27.5V20.625H12.375V14.4375C12.375 13.6813 12.6443 13.0339 13.1828 12.4953C13.7214 11.9568 14.3688 11.6875 15.125 11.6875H17.875C18.6312 11.6875 19.2786 11.9568 19.8172 12.4953C20.3557 13.0339 20.625 13.6813 20.625 14.4375V20.625H19.25V27.5H13.75Z" fill="#16B84F"/>
</svg>
